<?xml version="1.0" encoding="UTF-8" standalone="no"?>
<svg 
   xmlns:dc="http://purl.org/dc/elements/1.1/"
   xmlns:cc="http://creativecommons.org/ns#"
   xmlns:rdf="http://www.w3.org/1999/02/22-rdf-syntax-ns#"
   xmlns:svg="http://www.w3.org/2000/svg"
   xmlns="http://www.w3.org/2000/svg"
   xmlns:sodipodi="http://sodipodi.sourceforge.net/DTD/sodipodi-0.dtd"
   xmlns:inkscape="http://www.inkscape.org/namespaces/inkscape"
   version="1.1"
   id="svg2"
   xml:space="preserve"
   width="4000"
   height="4000"
   viewBox="0 0 4000 4000"
   sodipodi:docname="1Z_minimal_one_line_rose_small.eps"><metadata
     id="metadata8"><rdf:RDF><cc:Work
         rdf:about=""><dc:format>image/svg+xml</dc:format><dc:type
           rdf:resource="http://purl.org/dc/dcmitype/StillImage" /></cc:Work></rdf:RDF></metadata><defs
     id="defs6" /><sodipodi:namedview
     pagecolor="#ffffff"
     bordercolor="#666666"
     borderopacity="1"
     objecttolerance="10"
     gridtolerance="10"
     guidetolerance="10"
     inkscape:pageopacity="0"
     inkscape:pageshadow="2"
     inkscape:window-width="640"
     inkscape:window-height="480"
     id="namedview4" /><g
     id="g10"
     inkscape:groupmode="layer"
     inkscape:label="ink_ext_XXXXXX"
     transform="matrix(1.3333333,0,0,-1.3333333,0,4000)"><g
       id="g12"
       transform="scale(0.1)"><path
         d="M 30000,0 H 0 V 30000 H 30000 V 0"
         style="fill:none;fill-opacity:1;fill-rule:nonzero;stroke:none"
         id="path14" /><path
         d="m 14588.7,17586.4 c -79,-95.1 -216.7,-246.7 -322.8,-289.2 l -8.7,-3.4 c -71,-28.4 -122.4,-48.9 -130,-72.2 -4.9,-15.2 4.8,-41.6 30.6,-82.9 13.5,-21.7 25.7,-33.7 36.2,-35.9 16,-3.4 41.3,14 73.3,35.9 38,26 90,61.7 161.4,85.5 67,22.3 131.6,16.7 182.4,-4.8 -51.5,110.6 -40.3,255.9 -22.4,367 z m -348.9,-769 c 61.6,-42.7 208.2,-116.9 346.8,-116.9 130.2,0 282.7,148 297.2,254.3 7.9,57.9 -23.7,97.1 -93.9,116.6 -28.3,7.8 -53.2,18.5 -74.9,31.4 8.1,-52.8 -21.7,-106.2 -84.6,-148.1 -157.1,-104.8 -313.4,-130.9 -390.6,-137.3 z m 2952.4,1381.2 c -210.9,0 -531.2,-134.1 -649.6,-321.5 -130.2,-206.2 -139.6,-314.6 -153.9,-478.7 -5,-57.8 -10.7,-123.3 -22.5,-201.7 -5.9,-39.4 -11,-75.8 -15.8,-109.7 -32,-225.8 -49.6,-350.2 -182,-588.7 -8.2,-14.7 -14.5,-26.9 -19.2,-36.8 73.5,73.9 233.2,292.4 333.4,611.4 117,372.2 313.1,521.2 470.6,641 66.6,50.6 124.1,94.3 163.3,146.5 108.6,144.9 198.9,252.2 229.8,288.3 -23.5,33.5 -75.3,44.9 -116.9,48.4 -12,1 -24.4,1.5 -37.2,1.5 z m -165.5,-4253.4 c 10.5,-0.5 21,-1.1 31.5,-1.7 199.3,-10.8 425.1,-23.1 628.3,-4.1 235.8,22.1 405.1,82.9 517.6,186 57.7,52.9 115.6,103 171.7,151.6 187.5,162.2 349.4,302.3 330.9,400.9 -8.9,47.6 -64.1,89.9 -164.1,125.6 -454.1,162.2 -848.3,23.7 -1171.7,-411.4 -112.6,-151.6 -229.6,-301.3 -344.2,-446.9 z m -6739.1,-270.5 c 201.6,-183.5 454.4,-363.8 745,-528.6 479.7,-272.1 988.7,-454.6 1184,-424.6 45.1,7 62.2,18.9 63.2,27.1 1.5,13.1 -13.8,90.1 -469.8,321.9 -326.5,166 -716.1,330.2 -919.2,413.3 -182.4,74.6 -391.3,140.1 -603.2,190.9 z m 3686.8,-953.3 c -36.3,-8.5 -69.8,-16.9 -99.7,-25.1 -169.1,-46.4 -185.1,-76.8 -186,-85 -0.8,-7.7 8.4,-37.7 161.4,-101.4 55.7,-23.2 127.4,-42.3 153.2,-1.5 24.1,38.2 11.3,118.5 -28.9,213 z m 827.5,195.5 c 93.6,-320.3 213.2,-628.2 450.5,-645.2 380.2,-27.1 641.2,158.3 997.4,708.7 185.7,287 393.3,557.5 598.7,819.1 14,32.4 29,66.4 44.9,102.3 -96.4,4.1 -185.6,5.6 -260.8,0.2 -180.9,-12.9 -466.9,-197.5 -798.1,-411.3 -323.7,-208.9 -680.3,-439 -1032.6,-573.8 z m -3473.8,2930.9 c -57,0 -109.9,-9.5 -156.4,-27.1 -148.5,-56.2 -227.4,-188.2 -216.5,-362 43.8,-701.2 188.9,-1177.1 443.5,-1454.9 284.8,-310.6 927.6,-755 1549.2,-1184.7 93.5,-64.6 186.2,-128.7 276.8,-191.8 l 70.9,-49.4 c 631.3,-440.1 948.2,-661.1 1952.2,-546.3 482.9,55.2 782,197.7 979.9,292.1 12.2,5.8 24,11.4 35.4,16.8 54.1,49.6 121.1,107.8 200.7,176.5 178.9,154.4 401.6,346.6 579,545.3 271,303.5 474.3,559.1 563.8,684.7 -5.4,-4 -11,-8.1 -16.5,-12.3 -173.2,-128.5 -533.4,-395.8 -780.3,-428.8 -44,-5.9 -66.9,11 -78.2,26.2 -34.1,45.7 -14.7,139.7 44.8,293.8 -167.5,-216.2 -333.6,-439.1 -484.7,-672.6 -181.3,-280.2 -330,-455.7 -482.3,-569.1 -169.3,-126 -347.5,-177.6 -560.5,-162.4 -268.2,19.2 -395.8,342.5 -494,677.7 -93.9,-33.7 -187.4,-60.2 -279.8,-77.3 -158.7,-29.3 -319,-59.9 -450.7,-89.3 42.7,-103.1 55.9,-196.1 21.1,-251.2 -24.5,-38.8 -81.6,-73.4 -214.6,-18 -143.4,59.8 -197.2,102.6 -191.9,152.9 5.9,54.9 78.2,95.3 314.1,151.2 -54.9,110.9 -142.5,234.4 -249.3,330.5 -188.8,169.9 -653.4,831.2 -1102.6,1470.7 -263.5,375 -512.3,729.2 -670.6,932.8 -192.1,246.9 -418.7,346 -602.5,346 z m 2512.4,-5946.3 c 128.1,0 259.4,-33.9 398.4,-69.8 290.4,-75 590.6,-152.5 907.6,65.4 201.9,138.9 511.2,273.4 810.3,403.5 410.7,178.6 835.4,363.4 954.9,549.5 164.7,256.4 -527.5,995.3 -808.1,1258.4 -5.3,5 -8.2,12.2 -7.8,19.5 1.4,28.3 21.9,62.8 61,107 -198.9,-91.7 -482.1,-205 -903.3,-253.1 -1022.8,-116.9 -1344.9,107.7 -1986.5,555 l -70.8,49.4 c -90.6,63 -183.3,127.1 -276.7,191.6 -623.9,431.3 -1269.1,877.3 -1557.7,1192.1 -262.6,286.6 -412,772.5 -456.5,1485.5 -12.2,194.4 80.8,348.4 248.7,411.9 213.7,80.9 548.8,8.6 816.1,-335 159,-204.4 408.2,-559.1 672,-934.6 426.8,-607.6 910.5,-1296.2 1095.1,-1462.4 105.7,-95.1 205.1,-229.8 266.2,-356 116.6,26.2 267.9,56 462.6,92 90.6,16.8 182.5,42.9 275,76.2 -11.7,40.9 -23,81.9 -34.2,122.2 -44.5,161.2 -86.6,313.4 -138.9,426.6 -53.3,115.6 -78.5,252.1 -102.8,384 -59.8,324.6 -116.3,631.2 -565.7,651.6 -94.3,4.3 -173.9,5.5 -244.1,6.6 -424.9,6.4 -459.6,6.9 -826.5,635.9 -350.7,601.2 -736.2,1368.3 -602.8,1968.2 98.1,441.7 181,702.3 314.1,727.1 67,12.5 136.1,-36.1 211.1,-148.6 139,-208.6 189.2,-830.5 233.4,-1379.3 33.4,-415.1 65,-807.2 128.2,-933.6 104.4,-208.9 454.1,-474.2 534.9,-433.8 10.2,5.1 54.6,43 -69.6,291.4 -175.9,351.8 -343.4,792.4 -448,1178.5 -87.4,322.4 -169,748 -61.6,944.9 81.7,149.7 95.8,287.5 107.1,398.2 13.5,130.9 24.1,234.3 145.4,262.3 82.4,19 205.2,139.1 324,255.2 154.2,150.7 313.7,306.6 444.9,315.3 129.1,8.7 272.1,-81.6 398.1,-161.3 98.2,-62.1 190.8,-120.8 243.2,-109.2 110.7,24.6 382.8,-5.3 540.5,-106.5 66.6,-42.7 106.7,-94.1 119.3,-152.7 47,-219.3 420.8,-762.8 533.3,-775.3 82.6,-9.2 173,-81.4 219.6,-175.7 34.7,-69.9 76.1,-215.2 -36,-402 -65.4,-109.1 -127.5,-251.8 -187.5,-389.7 -110.8,-254.9 -206.5,-474.9 -322.3,-506.5 -120.2,-32.8 -204.5,1.7 -389.2,77.2 -87.7,35.9 -197,80.6 -345.7,133.3 -216.2,76.8 -348.5,84.4 -465.2,91.2 -132.2,7.6 -257.2,14.8 -467.6,120 -95.8,48 -194.1,86.3 -289.2,123.3 -200.4,78.1 -373.5,145.5 -421.6,270.2 -23.5,61.1 -15.4,129.8 24.7,210 85.7,171.4 205.8,305.5 321.9,435.1 109.7,122.5 213.3,238.1 277.8,374.4 83.9,177.1 172.4,173.5 294.8,168.5 93.3,-3.9 209.3,-8.6 379.1,54.3 278.1,102.9 548.6,40.2 709.1,-52.8 101.9,-59.1 167.2,-134.4 179.2,-206.6 13.6,-81.4 89.9,-243.7 170.6,-415.6 92.5,-196.7 188.1,-400.2 204.5,-514.9 26.2,-183.8 -89.3,-569.3 -199.4,-665.4 -30.6,-26.6 -56.1,-26.7 -72.2,-22.1 -22.2,6.3 -68.7,7.5 -118,8.7 -125.7,3.1 -282.1,7 -327.8,90.9 -22.8,41.9 -13.9,96.5 26.3,162.4 58.7,96 114.6,154.1 155.4,196.6 74.8,77.7 99.9,103.9 38,245.4 -62.8,143.6 -48.2,254.2 -34.2,361.2 10.4,78.8 21.1,160.3 2.6,259.1 -44.5,237.4 -229.4,388 -298.5,400 -62.5,10.9 -125.3,8.3 -142.7,-0.9 2.8,-4.6 10.4,-14.2 30.8,-29.5 79,-59.3 80.8,-89.4 65.7,-149 -7.2,-28.6 -16.2,-64.2 -10.8,-123.7 7.2,-79.7 56.9,-153.1 105,-224.1 46.3,-68.5 90.1,-133.1 90.1,-198.1 0,-32.1 11.9,-44.3 22.4,-55.1 8.4,-8.6 19.9,-20.4 17.5,-38.7 -3.5,-26.6 -29.5,-44.3 -160.9,-122.7 -88.5,-52.9 -138.7,-113.5 -183,-166.9 -79.5,-96.1 -142.4,-172 -356.8,-120.9 -79.1,18.8 -147.2,28.2 -202,35.8 -164.3,22.8 -254.8,35.4 -267.1,257.1 -5.9,104.8 -23.3,184.4 -38.6,254.7 -24.3,111.7 -43.6,199.9 -5.4,324 15.9,51.6 19.7,90 22.7,120.9 9.9,100.7 31.2,127.3 234.8,180.9 54.1,14.2 106,29.3 151.8,42.6 158.5,46.1 263.2,76.5 310.2,33.4 20.9,-19.2 27.1,-48.5 19,-89.6 -0.1,-0.3 -0.1,-0.7 -0.2,-1 l -0.8,-4.1 c -29,-144.7 -96.8,-483.3 148.1,-551.4 93.9,-26.1 141.3,-88.6 130,-171.4 -19.3,-141.9 -200.8,-297.6 -346.7,-297.6 -113.4,0 -224.6,45 -280.8,71.8 -33.7,16.1 -143.6,71.7 -143.6,113 0,10.7 5.6,20.2 14.9,25.5 5.5,3.2 11.9,4.7 19.5,4.7 35.1,0 219.4,6.3 406.1,130.8 55.8,37.1 75.7,79.7 56.1,119.8 -26.8,54.8 -119.3,92.3 -214.3,60.6 -64.7,-21.5 -111.4,-53.5 -148.9,-79.2 -41.9,-28.7 -74.9,-51.4 -111.8,-43.7 -25,5.2 -46.8,23.8 -68.4,58.4 -35.7,57.1 -46,93.3 -35.7,124.9 14.9,45.5 69.1,67.2 159,103.1 l 8.6,3.5 c 131.9,52.7 331.8,309.3 360.8,347.1 2,12.8 3.2,30.7 -4.7,37.9 -26.3,24.2 -146.3,-10.7 -262.5,-44.5 -46,-13.4 -98.3,-28.6 -152.9,-43 -189.2,-49.7 -190.7,-64.8 -197.8,-137.4 -3.1,-31.4 -7.3,-74.3 -24.7,-130.7 -34.3,-111.6 -17.2,-190 6.5,-298.6 15.7,-72.1 33.5,-153.9 39.6,-262.6 10,-180.7 59.6,-187.6 224.1,-210.3 55.8,-7.8 125.2,-17.4 206.7,-36.8 184.1,-43.9 230.3,11.9 306.7,104.2 44.5,53.7 99.9,120.6 195.9,177.9 48.3,28.9 112.3,67.1 132.4,84.4 -12.9,13.3 -35.8,37.8 -35.8,89.2 0,49.7 -39.6,108.1 -81.5,170 -49.2,72.7 -105,155.2 -113.4,247.7 -6.2,68 4.4,109.9 12.1,140.5 10.5,41.6 13,51.5 -47.2,96.7 -18,13.5 -65.8,49.4 -48.8,88.7 25.6,59.3 181.6,34 199.3,30.9 105.6,-18.3 294.6,-203.2 339,-440 20,-106.6 8.8,-192.1 -2.1,-274.8 -13.8,-104.8 -26.8,-203.9 30.4,-334.7 72.3,-165.1 37.6,-211.3 -47.7,-300.1 -41.5,-43 -93,-96.6 -148.8,-187.9 -30.3,-49.6 -38.7,-87.4 -25.1,-112.5 31.9,-58.5 184.3,-62.3 285.2,-64.8 54.8,-1.4 102.1,-2.6 130.4,-10.7 5.8,-1.6 15.2,2.7 25.7,11.8 89.5,78.1 208,443.6 182.7,620.6 -15.4,107.3 -109.3,307.3 -200.2,500.7 -82.3,175.1 -160,340.5 -174.7,428.7 -9.4,56.6 -67.4,120.7 -155,171.5 -150.6,87.4 -404.8,146.1 -666.6,49.2 -179.3,-66.4 -306,-61.2 -398.6,-57.4 -122.1,5 -177.8,7.3 -247.5,-139.9 -67.6,-142.8 -173.6,-261.1 -285.8,-386.3 -113.9,-127.2 -231.7,-258.7 -314.4,-424.1 -33.5,-67 -40.9,-122.5 -22.7,-169.7 40.1,-104.1 203.7,-167.8 393,-241.6 96.2,-37.5 195.6,-76.2 293.5,-125.1 201.2,-100.6 315.6,-107.3 448.1,-114.9 120,-7 256.1,-14.8 479,-93.9 149.9,-53.2 259.7,-98.1 347.9,-134.2 179.2,-73.3 253.3,-103.6 357.2,-75.3 92.6,25.3 192.7,255.5 289.6,478.2 60.6,139.4 123.3,283.6 190.5,395.5 74,123.3 86.1,249.1 34,354.2 -44.1,89 -124.1,141.8 -180.3,148.1 -156.6,17.4 -532.3,607.4 -576.7,814.6 -9.7,45 -42.4,85.8 -97.4,121 -149.4,95.9 -414.1,119.5 -502.7,99.8 -72.3,-16.1 -168.9,45 -280.8,115.7 -119.5,75.6 -255,161.3 -367.9,153.7 -112.9,-7.5 -272.5,-163.5 -413.3,-301.2 -129.5,-126.5 -251.7,-246 -347.7,-268.2 -82.9,-19.1 -93.1,-84.4 -106.9,-218.6 -11.8,-115.2 -26.5,-258.5 -113,-417.1 -77.6,-142.2 -54.2,-464.6 65.9,-907.8 103.9,-383.1 270,-820.2 444.6,-1169.2 102.8,-205.7 118.3,-323 47.2,-358.5 -83.7,-41.9 -246.2,75.5 -312.1,127.9 -128.7,102.2 -239.8,228 -289.9,328.2 -67.6,135.1 -98.1,513.7 -133.4,952 -43.7,542.7 -93.3,1157.8 -225.1,1355.6 -61.8,92.7 -115.7,135.5 -160.3,127.2 -126.7,-23.7 -222.9,-456.4 -274.5,-688.9 -129.6,-582.9 251.1,-1338.8 597.2,-1932.1 352.7,-604.6 377,-605 784,-611.1 70.6,-1.1 150.6,-2.3 245.7,-6.6 489.1,-22.3 551.9,-363 612.6,-692.5 23.7,-128.9 48.3,-262.3 99,-372.1 54,-117 96.6,-271.1 141.7,-434.3 10.8,-38.9 21.7,-78.5 33,-118 346.2,133.2 699.1,360.9 1019.4,567.6 337,217.5 628,405.3 821.6,419.2 82.8,5.9 180.7,3.7 286.3,-1 6.4,14.4 13,29.1 19.7,44.1 195.4,436.7 438.7,980.1 446.4,1406 12.1,661.4 42.9,2359.6 -16.9,2691.8 -40.8,-48.4 -118,-142.3 -208,-262.4 -43.4,-57.8 -103.5,-103.4 -173,-156.3 -151.9,-115.5 -341,-259.2 -453.2,-616.1 -116.5,-370.8 -336.8,-662.4 -407.1,-673.1 -13.1,-2 -25.1,2.9 -32.3,13.1 -11.8,17 -10.6,44.8 33.7,124.6 128,230.4 145.2,351.5 176.2,571.4 4.9,34.1 10,70.6 16,110.2 11.5,76.8 17.1,141.5 22.1,198.5 14.4,165.3 24.8,284.7 161.4,501.1 136.8,216.6 506.7,362.2 733.3,343.1 108.8,-9.1 150.2,-54.6 165.7,-91.3 0.2,-0.4 0.3,-0.8 0.4,-1.1 69.4,-169.5 53.4,-1560.8 31.7,-2754.4 -7.9,-436.1 -253.5,-984.7 -450.8,-1425.6 -2.4,-5.4 -4.8,-10.8 -7.2,-16.2 118.8,150.9 240.5,306.3 357.4,463.6 175.2,235.8 373.8,389.5 590.3,457.1 198,61.7 412.7,52.1 638.3,-28.4 119.6,-42.7 183.8,-96.2 196.4,-163.5 23.8,-126.9 -140,-268.6 -347.3,-448 -55.8,-48.2 -113.5,-98.2 -170.6,-150.6 -120.8,-110.7 -299.7,-175.8 -546.8,-198.9 -206.9,-19.3 -434.6,-6.9 -635.6,4 -22.4,1.2 -44.6,2.4 -66.6,3.6 -2.7,-3.5 -5.4,-6.9 -8.1,-10.3 -29.6,-37.6 -59.4,-75.4 -89.1,-113.3 -86.2,-199.3 -150.8,-370.5 -120.1,-411.6 1.8,-2.4 7.4,-9.8 31.6,-6.6 234,31.3 587.3,293.5 757.1,419.5 69.7,51.7 94.5,69.9 108.2,74.4 15.8,5.3 27.7,-2.3 33,-10.4 11.1,-16.9 20.7,-31.5 -171.9,-276.6 -125.8,-160.2 -285.5,-349.6 -449.5,-533.3 -179.6,-201.1 -403.6,-394.5 -583.7,-549.8 -31.2,-27 -62.7,-54.2 -93.3,-80.9 43.1,12.3 77.5,12.9 107.1,-3.3 45.6,-24.9 70.3,-84.4 85.4,-205.1 17.5,-140 94.1,-254.6 227.6,-340.5 243.3,-156.6 664,-193.9 1000.3,-88.8 207.6,64.9 429.9,253.1 687.4,471 333.9,282.7 712.4,603.1 1201.3,788.6 376.6,142.8 719.8,445.5 966.4,852.2 194.9,321.4 309.2,687.7 277.9,890.8 -62.1,403.6 93.4,1247 452.8,1906 211.7,388.1 110.6,911 -54.6,1271 -137.8,300.4 -333.6,517.4 -498.7,552.8 -243.3,52.1 -416.8,368.3 -556.1,622.4 -101.4,184.8 -197.1,359.4 -271.9,338.1 -26.6,-7.6 -59.7,-15.6 -98.1,-24.8 -270.2,-64.7 -772.9,-185.2 -874.5,-617 -52.9,-224.8 -53.9,-597.4 -54.9,-991.9 -1.3,-493.4 -2.7,-1052.5 -105.8,-1454.3 -184.6,-720 -466.3,-948.7 -478.2,-958 -8.3,-6.6 -19.8,-7.2 -28.7,-1.7 -8.9,5.6 -13.5,16.1 -11.3,26.4 2.4,11.4 238.4,1139.6 179.8,1490.9 -62.4,374.8 62.2,1216.1 150.8,1511.5 93,310.1 155,919.8 -74.7,1235.7 -81.3,111.7 -195.3,251.7 -315.9,400 -237.9,292.4 -507.6,623.8 -647.3,883.2 -246.9,458.4 -881.7,526.9 -1238.1,526.9 -372.3,0 -566.4,155.3 -722.4,280.2 -76,60.8 -141.8,113.4 -216.5,141.4 -107.9,40.5 -275.9,-53.3 -438.4,-144 -177,-98.8 -360,-200.9 -492.5,-145.7 -280.1,116.7 -694.3,243.9 -1056.7,2.3 -331.4,-220.9 -724.3,-562.4 -1236.6,-1074.7 -328.7,-328.7 -377,-677.6 -428.1,-1046.9 -13.1,-94.4 -26.6,-192 -45,-290.1 -41.3,-220.2 -120.5,-397.9 -220.7,-623 -123,-276.1 -276.1,-619.9 -439.9,-1209.3 -156.3,-562.8 -132.2,-875.6 -75.7,-1045 73.5,-114.8 130,-191.3 131.7,-193.5 6.9,-9.3 6.6,-22.1 -0.9,-31 -7.4,-8.9 -20,-11.5 -30.3,-6.3 -7.3,3.6 -90,48.1 -144.9,206.2 -150.6,234.8 -369.1,626 -348.6,892.6 8.9,116.2 88.2,263.7 179.9,434.6 66.5,123.9 141.9,264.3 196.4,406.8 73.3,191.9 118.4,386.5 158.1,558.2 29.5,127.3 55,237.3 87,326.9 65.9,184.6 119.6,386.7 176.4,600.6 71.1,267.6 144.7,544.2 247.2,800.6 71.1,177.7 164.8,259.3 264,345.8 45.6,39.7 92.7,80.8 140.1,133.3 191.7,212.3 399.7,406.8 487.6,487.1 -184.9,11.9 -779.5,24.1 -1146.4,-269.4 -400.7,-320.5 -707.5,-382.6 -1062.8,-454.4 -47.8,-9.7 -97.3,-19.8 -147.7,-30.5 -419.08,-89.8 -1026.4,-735.1 -1111.15,-989.4 -25.05,-75.1 -53.33,-202.6 -89.12,-363.9 -90.42,-407.6 -227.05,-1023.4 -472.38,-1499.6 -131.1,-254.5 -135.89,-494.4 -15.08,-755.1 107.68,-232.3 304.41,-452.4 494.66,-665.2 38.58,-43.1 78.47,-87.8 117.02,-131.8 235.53,-269.2 298.67,-567.5 371.76,-912.9 59.8,-282.6 127.57,-602.8 301.68,-977.8 74.23,-159.9 201.21,-327.4 371.31,-493.5 252.7,-56 495.5,-132.1 695.6,-214 203.9,-83.4 594.8,-248.2 922.9,-414.9 452.2,-229.8 503.1,-319.8 496.8,-372.4 -6.5,-55.4 -80.8,-66.8 -105.2,-70.6 -16,-2.5 -33.8,-3.7 -53.3,-3.7 -233.6,0 -704.7,174.3 -1163,434.2 -324.3,184 -602.5,387.5 -816.5,594.1 -174.2,37.9 -347.96,65.3 -508.3,79.1 -333.41,28.5 -772.15,14.3 -968.86,-215.2 -223.5,-260.7 -272.1,-765 -222.69,-1123.2 32.8,-237.8 106.58,-415.9 197.37,-476.4 95.86,-63.9 231.81,-203.4 389.23,-364.9 300.01,-307.9 673.37,-691 1021.05,-826.2 498.4,-193.8 1067.2,-438.5 1506.5,-783.7 313.7,-246.5 1251.2,-163.5 1811.3,-113.9 184.9,16.3 330.9,29.2 423.5,29.2 z m 850.8,-196.3 c -162.5,0 -318.6,40.3 -464.9,78.1 -135.9,35.1 -264.2,68.2 -385.9,68.2 -90.4,0 -242.7,-13.4 -419.1,-29 -604.2,-53.5 -1517.3,-134.3 -1846.6,124.4 -434.1,341.1 -998.7,583.9 -1493.7,776.4 -357.81,139.2 -735.38,526.6 -1038.76,837.9 -155.45,159.5 -289.69,297.2 -381.16,358.2 -104.03,69.3 -183.91,255.7 -219.16,511.2 -52.6,381.2 -0.56,888.6 234.25,1162.5 247.78,289.1 864.14,287.1 1448.93,169.7 -147.63,152.8 -259.29,306.2 -327.76,453.6 -176.5,380.2 -244.9,703.4 -305.24,988.5 -74.61,352.5 -133.54,631 -360.49,890.4 -38.36,43.8 -78.17,88.3 -116.65,131.4 -389.04,435.2 -791.34,885.2 -486.76,1476.5 242.36,470.4 378.16,1082.5 468.01,1487.5 36.11,162.8 64.64,291.3 90.5,368.9 45.98,138 225.86,371.4 447.6,580.8 253.86,239.7 509.19,400.7 700.49,441.7 50.7,10.8 100.3,20.8 148.3,30.6 348.9,70.6 650.3,131.5 1041.5,444.5 452.9,362.4 1208.2,279 1240.1,275.3 9.8,-1.1 18,-7.9 21,-17.3 2.9,-9.4 0.1,-19.7 -7.3,-26.2 -2.8,-2.5 -278.6,-247.4 -526.7,-522.1 -49.4,-54.7 -97.7,-96.8 -144.4,-137.5 -98.6,-86 -183.8,-160.2 -250.4,-326.7 -101.4,-253.5 -174.5,-528.7 -245.2,-794.8 -57.2,-215 -111.1,-418.1 -177.7,-604.6 -31.1,-86.9 -56.2,-195.6 -85.4,-321.4 -40.1,-173.2 -85.6,-369.6 -160.1,-564.7 -55.6,-145.6 -131.8,-287.5 -199,-412.7 -89.1,-165.9 -166,-309.1 -174.2,-414.7 -15.9,-207.5 128.5,-505.7 262.2,-732.6 -27.5,194.3 -13.4,487.7 108.6,926.8 164.7,593 318.6,938.6 442.3,1216.3 98.9,222 177,397.4 217.2,611.8 18.2,97 31.7,194 44.6,287.8 52.4,377.9 101.8,734.8 442.4,1075.4 514.6,514.6 910,858.1 1244.2,1080.9 382.3,254.9 812.9,123.4 1103.6,2.3 110,-45.9 282.3,50.2 448.9,143.2 180.4,100.6 350.8,195.7 480.3,147.2 82.3,-30.9 154.2,-88.4 230.3,-149.3 157.7,-126.2 336.4,-269.2 691.1,-269.2 367.5,0 1022.9,-71.9 1282.1,-553.2 137.4,-255.2 405.5,-584.7 642.1,-875.3 121.1,-148.8 235.4,-289.4 317.5,-402.2 240.3,-330.5 177.9,-960.2 82.2,-1279.5 -85.3,-284 -209.6,-1127.1 -149.4,-1488.8 51.3,-307.8 -109.1,-1155.9 -163.3,-1426.7 91.3,105 273.6,364.6 404,873.2 101.5,395.7 102.9,951.6 104.2,1442 1,397.4 2,772.9 56.2,1003.3 47.1,200.1 180.9,360.8 397.7,477.4 179.4,96.6 380.6,144.8 513.8,176.7 37.8,9.1 70.5,16.9 96.1,24.2 113,32.4 208.6,-141.7 329.4,-362.1 134.5,-245.1 301.8,-550.2 522.8,-597.6 182.8,-39.1 387.3,-261.7 533.7,-580.7 170.2,-371.1 273.6,-911.6 53,-1315.9 -354.4,-649.7 -508.1,-1478.8 -447.3,-1874.4 33.4,-217.1 -80.9,-588.5 -284.6,-924.3 -252.3,-416.2 -604.4,-726.3 -991.3,-873 -481,-182.5 -856,-499.9 -1186.8,-780 -261.6,-221.5 -487.5,-412.7 -704.8,-480.6 -354.9,-110.9 -783.5,-72.1 -1042.3,94.4 -144.5,93 -231,223.1 -250.1,376.4 -12.4,98.7 -31.3,151.9 -59.8,167.4 -34.5,18.9 -99.1,-7.5 -194.5,-52.4 -75.8,-70.1 -132.4,-129.5 -143.9,-163.2 49.7,-47.4 275.3,-266.1 477.8,-514.2 312.2,-382.6 422.6,-651.2 328.2,-798.2 -127.8,-198.9 -540.3,-378.4 -977.1,-568.4 -296.9,-129.1 -603.9,-262.7 -801.9,-398.8 -164.7,-113.2 -327,-150.7 -483.5,-150.7"
         style="fill:#1d1d1b;fill-opacity:1;fill-rule:nonzero;stroke:none"
         id="path16" /></g></g></svg>
